<?xml version="1.0" encoding="utf-8"?>
<!-- Generator: Adobe Illustrator 28.0.0, SVG Export Plug-In . SVG Version: 6.00 Build 0)  -->
<svg version="1.1" id="Layer_1" xmlns="http://www.w3.org/2000/svg" xmlns:xlink="http://www.w3.org/1999/xlink" x="0px" y="0px"
	 viewBox="0 0 274.54 176.04" style="enable-background:new 0 0 274.54 176.04;" xml:space="preserve">
<style type="text/css">
	.st0{fill:url(#SVGID_1_);}
	.st1{fill:url(#SVGID_00000145773609520526966510000015774807980071766926_);}
	.st2{fill:url(#SVGID_00000058589660520323885100000015075644614918919322_);}
	.st3{fill:url(#SVGID_00000021839245029994901160000011018076060670245530_);}
	.st4{fill:url(#SVGID_00000029038649686717397420000018403879732965339579_);}
</style>
<radialGradient id="SVGID_1_" cx="49.4415" cy="112.1507" r="34.0779" fx="56.7677" fy="106.7357" gradientTransform="matrix(0.9967 -0.0812 0.1206 1.4804 -13.359 -49.8666)" gradientUnits="userSpaceOnUse">
	<stop  offset="0" style="stop-color:#035689"/>
	<stop  offset="0.0528" style="stop-color:#045A90"/>
	<stop  offset="0.1285" style="stop-color:#0664A3"/>
	<stop  offset="0.2112" style="stop-color:#0974BF"/>
	<stop  offset="0.2312" style="stop-color:#0A76C2"/>
	<stop  offset="0.4967" style="stop-color:#1B8FE1"/>
	<stop  offset="0.6444" style="stop-color:#2198ED"/>
	<stop  offset="0.777" style="stop-color:#2399ED"/>
	<stop  offset="0.8248" style="stop-color:#2A9CEE"/>
	<stop  offset="0.8589" style="stop-color:#35A2EF"/>
	<stop  offset="0.8864" style="stop-color:#46A9F0"/>
	<stop  offset="0.91" style="stop-color:#5CB4F2"/>
	<stop  offset="0.9309" style="stop-color:#78C0F4"/>
	<stop  offset="0.9498" style="stop-color:#98CFF7"/>
	<stop  offset="0.9672" style="stop-color:#BEE1FA"/>
	<stop  offset="0.9827" style="stop-color:#E7F4FD"/>
	<stop  offset="0.9906" style="stop-color:#FFFFFF"/>
</radialGradient>
<path class="st0" d="M23.54,115.29c0.87-11.88,3.68-21.67,8.12-28.33c3.96-5.95,9.09-9.21,14.47-9.21c0.1,0,0.2,0,0.3,0
	c8.35,0.19,17.58,8.9,18.11,27.6l0,0.06l0,0.06c-0.47,8.89-4.87,11-6.74,11.5c-3.33,0.89-7.1-0.72-9.15-3.91
	c-2.28-3.54-1.82-7.88,1.23-11.62l2.32,1.9c-2.22,2.71-2.6,5.66-1.03,8.09c1.34,2.08,3.8,3.19,5.86,2.64
	c2.6-0.69,4.24-3.86,4.51-8.7c-0.5-16.7-8.21-24.47-15.18-24.63c-8.59-0.24-18.04,10.48-19.82,34.76
	c-3.19,43.45,17.77,49.26,24.28,50.01c11.73,1.34,23.76-6.21,25.28-15.85l0.43,0.07c1.07-7.77,1.68-15.93,1.66-24.01
	c0-0.01,0-0.02,0-0.02c0-0.02,0-0.04,0-0.06c-0.06-23.21-5.34-45.7-19.97-56.25c-19.51-12.93-46.13,3.64-45.7,56.39
	c0.02,1.04,0.04,2.07,0.09,3.15l-0.02,0c0.01,0.34,0.01,0.66,0.02,1l10.62-6.86C23.24,120.61,23.34,118.03,23.54,115.29z"/>
<radialGradient id="SVGID_00000103944447610627331500000002362380946720783805_" cx="117.178" cy="83.9176" r="24.6351" fx="119.8801" fy="80.7566" gradientTransform="matrix(1 0 0 0.9382 0 5.1858)" gradientUnits="userSpaceOnUse">
	<stop  offset="0" style="stop-color:#035689"/>
	<stop  offset="0.0528" style="stop-color:#045A90"/>
	<stop  offset="0.1285" style="stop-color:#0664A3"/>
	<stop  offset="0.2112" style="stop-color:#0974BF"/>
	<stop  offset="0.2312" style="stop-color:#0A76C2"/>
	<stop  offset="0.4967" style="stop-color:#1B8FE1"/>
	<stop  offset="0.6444" style="stop-color:#2198ED"/>
	<stop  offset="0.777" style="stop-color:#2399ED"/>
	<stop  offset="0.8248" style="stop-color:#2A9CEE"/>
	<stop  offset="0.8589" style="stop-color:#35A2EF"/>
	<stop  offset="0.8864" style="stop-color:#46A9F0"/>
	<stop  offset="0.91" style="stop-color:#5CB4F2"/>
	<stop  offset="0.9309" style="stop-color:#78C0F4"/>
	<stop  offset="0.9498" style="stop-color:#98CFF7"/>
	<stop  offset="0.9672" style="stop-color:#BEE1FA"/>
	<stop  offset="0.9827" style="stop-color:#E7F4FD"/>
	<stop  offset="0.9906" style="stop-color:#FFFFFF"/>
</radialGradient>
<path style="fill:url(#SVGID_00000103944447610627331500000002362380946720783805_);" d="M109.51,88.08
	c-0.98-6.85,1.25-12.09,5.96-14.1c3.75-1.6,8.14-0.65,10.43,2.26c1.18,1.51,3.4,5.73-1.6,12.4l-2.27-1.7
	c2.69-3.58,3.29-6.85,1.64-8.95c-1.49-1.89-4.54-2.5-7.09-1.41c-3.51,1.5-5.07,5.51-4.29,11c1.27,6,6.68,11.71,15.85,10.71
	c6.66-0.73,13.34-5.45,13.26-14.36l1.42-0.01h-1.42c0-13.75-11.19-24.94-24.94-24.94S91.53,70.17,91.53,83.92
	c0,13.75,11.19,24.94,24.94,24.94v-0.11c0.63,0,1.26,0.03,1.88,0.07l2.21-8.49C115.44,98.7,110.92,94.81,109.51,88.08z"/>
<radialGradient id="SVGID_00000132774600409068984040000005274836291629414325_" cx="46.178" cy="37.9176" r="24.6351" fx="48.8801" fy="34.7566" gradientTransform="matrix(1 0 0 0.9382 0 2.3432)" gradientUnits="userSpaceOnUse">
	<stop  offset="0" style="stop-color:#035689"/>
	<stop  offset="0.0528" style="stop-color:#045A90"/>
	<stop  offset="0.1285" style="stop-color:#0664A3"/>
	<stop  offset="0.2112" style="stop-color:#0974BF"/>
	<stop  offset="0.2312" style="stop-color:#0A76C2"/>
	<stop  offset="0.4967" style="stop-color:#1B8FE1"/>
	<stop  offset="0.6444" style="stop-color:#2198ED"/>
	<stop  offset="0.777" style="stop-color:#2399ED"/>
	<stop  offset="0.8248" style="stop-color:#2A9CEE"/>
	<stop  offset="0.8589" style="stop-color:#35A2EF"/>
	<stop  offset="0.8864" style="stop-color:#46A9F0"/>
	<stop  offset="0.91" style="stop-color:#5CB4F2"/>
	<stop  offset="0.9309" style="stop-color:#78C0F4"/>
	<stop  offset="0.9498" style="stop-color:#98CFF7"/>
	<stop  offset="0.9672" style="stop-color:#BEE1FA"/>
	<stop  offset="0.9827" style="stop-color:#E7F4FD"/>
	<stop  offset="0.9906" style="stop-color:#FFFFFF"/>
</radialGradient>
<path style="fill:url(#SVGID_00000132774600409068984040000005274836291629414325_);" d="M38.51,42.08
	c-0.98-6.85,1.25-12.09,5.96-14.1c3.75-1.6,8.14-0.65,10.43,2.26c1.18,1.51,3.4,5.73-1.6,12.4l-2.27-1.7
	c2.69-3.58,3.29-6.85,1.64-8.95c-1.49-1.89-4.54-2.5-7.09-1.41c-3.51,1.5-5.07,5.51-4.29,11c1.27,6,6.68,11.71,15.85,10.71
	c6.66-0.73,13.34-5.45,13.26-14.36l1.42-0.01h-1.42c0-13.75-11.19-24.94-24.94-24.94S20.53,24.17,20.53,37.92
	c0,13.75,11.19,24.94,24.94,24.94v-0.11c0.63,0,1.26,0.03,1.88,0.07l2.21-8.49C44.44,52.7,39.92,48.81,38.51,42.08z"/>
<radialGradient id="SVGID_00000124861339217353219560000010122898666293983390_" cx="203.9994" cy="109.9787" r="54.6037" fx="179.6776" fy="99.8156" gradientTransform="matrix(1 0 0 0.8811 0 13.0715)" gradientUnits="userSpaceOnUse">
	<stop  offset="0" style="stop-color:#035689"/>
	<stop  offset="0.0528" style="stop-color:#045A90"/>
	<stop  offset="0.1285" style="stop-color:#0664A3"/>
	<stop  offset="0.2112" style="stop-color:#0974BF"/>
	<stop  offset="0.2312" style="stop-color:#0A76C2"/>
	<stop  offset="0.4967" style="stop-color:#1B8FE1"/>
	<stop  offset="0.6444" style="stop-color:#2198ED"/>
	<stop  offset="0.777" style="stop-color:#2399ED"/>
	<stop  offset="0.8248" style="stop-color:#2A9CEE"/>
	<stop  offset="0.8589" style="stop-color:#35A2EF"/>
	<stop  offset="0.8864" style="stop-color:#46A9F0"/>
	<stop  offset="0.91" style="stop-color:#5CB4F2"/>
	<stop  offset="0.9309" style="stop-color:#78C0F4"/>
	<stop  offset="0.9498" style="stop-color:#98CFF7"/>
	<stop  offset="0.9672" style="stop-color:#BEE1FA"/>
	<stop  offset="0.9827" style="stop-color:#E7F4FD"/>
	<stop  offset="0.9906" style="stop-color:#FFFFFF"/>
</radialGradient>
<path style="fill:url(#SVGID_00000124861339217353219560000010122898666293983390_);" d="M157.36,127.96
	c-2.8-19.6,2.55-35.05,14.68-42.49c9.53-5.84,22.22-5.68,30.86,0.39c6.07,4.26,9.27,10.74,9.19,18.25l0.12,0
	c0.12,12.67-9.67,19.51-18.81,20.5c-0.81,0.09-1.64,0.13-2.48,0.13c-8.5,0-17.78-4.66-20.1-15.66c-1.17-8.17,1.49-14.41,7.11-16.8
	c4.47-1.91,9.71-0.78,12.43,2.7c1.41,1.8,4.05,6.83-1.91,14.77l-2.7-2.03c3.2-4.27,3.92-8.16,1.95-10.66
	c-1.77-2.26-5.41-2.98-8.45-1.68c-4.18,1.79-6.04,6.57-5.11,13.11c1.51,7.15,7.95,13.95,18.89,12.76
	c6.66-0.73,13.32-4.82,15.24-12.39l-0.09-0.02c1.77-8.52-0.8-15.7-7.22-20.22c-7.57-5.32-18.74-5.43-27.16-0.27
	c-6.42,3.94-16.66,14.24-13.12,39.02c4.64,22.02,23.16,45.35,52.86,44.28c21.64-0.78,46.76-16.28,52.37-57.43l0.45,0.06
	c0.07-1.19,0.1-2.38,0.1-3.57c0-34.44-28.02-62.46-62.46-62.46s-62.46,28.02-62.46,62.46c0,21.32,10.68,40.88,28.57,52.46l1.88-5.96
	C164.94,149.43,159.77,139.45,157.36,127.96z"/>
<radialGradient id="SVGID_00000116941191847797766950000010585280916904057729_" cx="115.7614" cy="132.5464" r="25.2771" fx="115.2619" fy="138.2032" gradientUnits="userSpaceOnUse">
	<stop  offset="0" style="stop-color:#035689"/>
	<stop  offset="0.0528" style="stop-color:#045A90"/>
	<stop  offset="0.1285" style="stop-color:#0664A3"/>
	<stop  offset="0.2112" style="stop-color:#0974BF"/>
	<stop  offset="0.2312" style="stop-color:#0A76C2"/>
	<stop  offset="0.4967" style="stop-color:#1B8FE1"/>
	<stop  offset="0.6444" style="stop-color:#2198ED"/>
	<stop  offset="0.777" style="stop-color:#2399ED"/>
	<stop  offset="0.8248" style="stop-color:#2A9CEE"/>
	<stop  offset="0.8589" style="stop-color:#35A2EF"/>
	<stop  offset="0.8864" style="stop-color:#46A9F0"/>
	<stop  offset="0.91" style="stop-color:#5CB4F2"/>
	<stop  offset="0.9309" style="stop-color:#78C0F4"/>
	<stop  offset="0.9498" style="stop-color:#98CFF7"/>
	<stop  offset="0.9672" style="stop-color:#BEE1FA"/>
	<stop  offset="0.9827" style="stop-color:#E7F4FD"/>
	<stop  offset="0.9906" style="stop-color:#FFFFFF"/>
</radialGradient>
<path style="fill:url(#SVGID_00000116941191847797766950000010585280916904057729_);" d="M91.53,132.51
	c0,13.75,11.19,24.94,24.94,24.94s24.94-11.19,24.94-24.94c0-13.17-10.27-23.99-23.22-24.87l-2.6,9.15
	c0.19,0.11,0.39,0.21,0.58,0.33c3.46,2.15,9.04,7.7,7.47,20.67c-0.6,3.94-2.78,6.52-5.97,7.14c-0.46,0.09-0.92,0.13-1.38,0.13
	c-2.91,0-5.89-1.67-7.44-4.3c-0.97-1.64-2.72-6.05,1.91-11.6l2.18,1.81c-2.48,2.98-3.07,5.95-1.65,8.35
	c1.2,2.02,3.71,3.24,5.85,2.83c1.97-0.38,3.29-2.06,3.7-4.74c1.31-10.79-2.63-15.68-6.16-17.88c-4.85-3.01-11.97-2.67-17.32,0.84
	c-4.39,2.87-6.51,7.23-5.83,11.95l-1.4,0.2H91.53z"/>
</svg>
